<svg xmlns="http://www.w3.org/2000/svg" width="4500" height="3000"><path d="M332,3640L-649,3638L1524,3667Z" fill="#779b68" stroke="#779b68" stroke-width="1.51"/><path d="M2001,3619L1524,3667L2269,3623Z" fill="#4b8a55" stroke="#4b8a55" stroke-width="1.51"/><path d="M546,-531L1060,-475L2697,-688Z" fill="#d7efb5" stroke="#d7efb5" stroke-width="1.51"/><path d="M265,-564L546,-531L2697,-688Z" fill="#e0f2ba" stroke="#e0f2ba" stroke-width="1.51"/><path d="M2269,3623L1524,3667L3253,3697Z" fill="#3b824e" stroke="#3b824e" stroke-width="1.51"/><path d="M2697,-688L2886,-654L3597,-658Z" fill="#a4d49d" stroke="#a4d49d" stroke-width="1.51"/><path d="M3597,-658L3970,-607L4733,-538Z" fill="#90ba89" stroke="#90ba89" stroke-width="1.51"/><path d="M4369,3420L3887,3679L4945,3504Z" fill="#025d33" stroke="#025d33" stroke-width="1.51"/><path d="M4719,3124L4734,3337L4945,3504Z" fill="#005b32" stroke="#005b32" stroke-width="1.51"/><path d="M5010,1459L5029,1985L5032,987Z" fill="#418952" stroke="#418952" stroke-width="1.51"/><path d="M5029,1985L4881,2340L5076,2594Z" fill="#1b743f" stroke="#1b743f" stroke-width="1.51"/><path d="M5032,987L5029,1985L5076,2594Z" fill="#2e8049" stroke="#2e8049" stroke-width="1.51"/><path d="M4918,709L5032,987L5077,-90Z" fill="#6d9a63" stroke="#6d9a63" stroke-width="1.51"/><path d="M4890,268L4918,709L5077,-90Z" fill="#759f67" stroke="#759f67" stroke-width="1.51"/><path d="M4719,3124L4945,3504L5084,2920Z" fill="#005d32" stroke="#005d32" stroke-width="1.51"/><path d="M3597,-658L4733,-538L5210,-516Z" fill="#89b185" stroke="#89b185" stroke-width="1.51"/><path d="M4826,-148L5077,-90L5210,-516Z" fill="#81a373" stroke="#81a373" stroke-width="1.51"/><path d="M4733,-538L4826,-148L5210,-516Z" fill="#83a579" stroke="#83a579" stroke-width="1.51"/><path d="M5077,-90L5032,987L5210,-516Z" fill="#789d69" stroke="#789d69" stroke-width="1.51"/><path d="M5032,987L5076,2594L5210,-516Z" fill="#589059" stroke="#589059" stroke-width="1.51"/><path d="M5076,2594L5084,2920L5210,-516Z" fill="#38824c" stroke="#38824c" stroke-width="1.51"/><path d="M1060,-475L1930,-497L2697,-688Z" fill="#c8e8ad" stroke="#c8e8ad" stroke-width="1.51"/><path d="M4622,940L4695,1531L5010,1459Z" fill="#4d9357" stroke="#4d9357" stroke-width="1.51"/><path d="M5010,1459L4695,1531L5029,1985Z" fill="#39874f" stroke="#39874f" stroke-width="1.51"/><path d="M4622,940L5010,1459L5032,987Z" fill="#55945a" stroke="#55945a" stroke-width="1.51"/><path d="M4826,-148L4890,268L5077,-90Z" fill="#7da36d" stroke="#7da36d" stroke-width="1.51"/><path d="M5076,2594L4735,2839L5084,2920Z" fill="#0c6636" stroke="#0c6636" stroke-width="1.51"/><path d="M4735,2839L4719,3124L5084,2920Z" fill="#076436" stroke="#076436" stroke-width="1.51"/><path d="M4881,2340L4735,2839L5076,2594Z" fill="#136d39" stroke="#136d39" stroke-width="1.51"/><path d="M4890,268L4565,401L4918,709Z" fill="#72a167" stroke="#72a167" stroke-width="1.51"/><path d="M4589,2102L4881,2340L5029,1985Z" fill="#217d45" stroke="#217d45" stroke-width="1.51"/><path d="M4695,1531L4589,2102L5029,1985Z" fill="#2f864b" stroke="#2f864b" stroke-width="1.51"/><path d="M4918,709L4622,940L5032,987Z" fill="#61995e" stroke="#61995e" stroke-width="1.51"/><path d="M4826,-148L4377,207L4890,268Z" fill="#7ea86e" stroke="#7ea86e" stroke-width="1.51"/><path d="M4734,3337L4369,3420L4945,3504Z" fill="#005a32" stroke="#005a32" stroke-width="1.51"/><path d="M4377,207L4565,401L4890,268Z" fill="#7aa86b" stroke="#7aa86b" stroke-width="1.51"/><path d="M4527,791L4622,940L4918,709Z" fill="#659e61" stroke="#659e61" stroke-width="1.51"/><path d="M4565,401L4527,791L4918,709Z" fill="#6ca265" stroke="#6ca265" stroke-width="1.51"/><path d="M4415,2034L4589,2102L4695,1531Z" fill="#2f8b4d" stroke="#2f8b4d" stroke-width="1.51"/><path d="M4589,2102L4507,2089L4735,2839Z" fill="#1c7c42" stroke="#1c7c42" stroke-width="1.51"/><path d="M4507,2089L4124,2742L4735,2839Z" fill="#16783e" stroke="#16783e" stroke-width="1.51"/><path d="M4589,2102L4735,2839L4881,2340Z" fill="#19763f" stroke="#19763f" stroke-width="1.51"/><path d="M4733,-538L4408,-349L4826,-148Z" fill="#86ad7b" stroke="#86ad7b" stroke-width="1.51"/><path d="M4090,2315L4124,2742L4507,2089Z" fill="#208244" stroke="#208244" stroke-width="1.51"/><path d="M4415,2034L4507,2089L4589,2102Z" fill="#258849" stroke="#258849" stroke-width="1.51"/><path d="M4622,940L4282,1064L4695,1531Z" fill="#569b5c" stroke="#569b5c" stroke-width="1.51"/><path d="M4408,-349L4377,207L4826,-148Z" fill="#85af73" stroke="#85af73" stroke-width="1.51"/><path d="M4180,-79L4377,207L4408,-349Z" fill="#88b375" stroke="#88b375" stroke-width="1.51"/><path d="M4143,1531L4415,2034L4695,1531Z" fill="#3b9353" stroke="#3b9353" stroke-width="1.51"/><path d="M4282,1064L4143,1531L4695,1531Z" fill="#4d9b5a" stroke="#4d9b5a" stroke-width="1.51"/><path d="M4124,2742L4055,3068L4719,3124Z" fill="#0c703a" stroke="#0c703a" stroke-width="1.51"/><path d="M3970,-607L4408,-349L4733,-538Z" fill="#8bb483" stroke="#8bb483" stroke-width="1.51"/><path d="M4719,3124L4369,3420L4734,3337Z" fill="#006134" stroke="#006134" stroke-width="1.51"/><path d="M4124,2742L4719,3124L4735,2839Z" fill="#0a6d39" stroke="#0a6d39" stroke-width="1.51"/><path d="M4055,3068L4369,3420L4719,3124Z" fill="#036837" stroke="#036837" stroke-width="1.51"/><path d="M4194,763L4527,791L4565,401Z" fill="#6fa766" stroke="#6fa766" stroke-width="1.51"/><path d="M4527,791L4282,1064L4622,940Z" fill="#62a261" stroke="#62a261" stroke-width="1.51"/><path d="M4415,2034L4090,2315L4507,2089Z" fill="#258949" stroke="#258949" stroke-width="1.51"/><path d="M4377,207L4194,763L4565,401Z" fill="#77ab6b" stroke="#77ab6b" stroke-width="1.51"/><path d="M4006,644L4194,763L4377,207Z" fill="#77ae6b" stroke="#77ae6b" stroke-width="1.51"/><path d="M4143,1531L4032,1609L4415,2034Z" fill="#3e9654" stroke="#3e9654" stroke-width="1.51"/><path d="M4194,763L4282,1064L4527,791Z" fill="#67a664" stroke="#67a664" stroke-width="1.51"/><path d="M4055,3068L4032,3252L4369,3420Z" fill="#0a6b39" stroke="#0a6b39" stroke-width="1.51"/><path d="M4032,1609L4090,2315L4415,2034Z" fill="#2f904e" stroke="#2f904e" stroke-width="1.51"/><path d="M3970,-607L4180,-79L4408,-349Z" fill="#8db77f" stroke="#8db77f" stroke-width="1.51"/><path d="M4032,1609L3695,2098L4090,2315Z" fill="#32954f" stroke="#32954f" stroke-width="1.51"/><path d="M4032,3252L3887,3679L4369,3420Z" fill="#0a6636" stroke="#0a6636" stroke-width="1.51"/><path d="M4180,-79L3992,-1L4377,207Z" fill="#87b574" stroke="#87b574" stroke-width="1.51"/><path d="M3992,-1L4006,644L4377,207Z" fill="#80b370" stroke="#80b370" stroke-width="1.51"/><path d="M3992,-1L3752,129L4006,644Z" fill="#85b872" stroke="#85b872" stroke-width="1.51"/><path d="M4090,2315L3931,2376L4124,2742Z" fill="#218343" stroke="#218343" stroke-width="1.51"/><path d="M4194,763L3870,1099L4282,1064Z" fill="#66a864" stroke="#66a864" stroke-width="1.51"/><path d="M3870,1099L4143,1531L4282,1064Z" fill="#59a35f" stroke="#59a35f" stroke-width="1.51"/><path d="M3870,1099L4032,1609L4143,1531Z" fill="#51a15d" stroke="#51a15d" stroke-width="1.51"/><path d="M3970,-607L3992,-1L4180,-79Z" fill="#8eb97c" stroke="#8eb97c" stroke-width="1.51"/><path d="M4006,644L3870,1099L4194,763Z" fill="#6dad67" stroke="#6dad67" stroke-width="1.51"/><path d="M3817,2822L4055,3068L4124,2742Z" fill="#17783e" stroke="#17783e" stroke-width="1.51"/><path d="M3695,2098L3931,2376L4090,2315Z" fill="#2a8d49" stroke="#2a8d49" stroke-width="1.51"/><path d="M3931,2376L3817,2822L4124,2742Z" fill="#1e7f41" stroke="#1e7f41" stroke-width="1.51"/><path d="M3970,-607L3597,-658L3992,-1Z" fill="#93be85" stroke="#93be85" stroke-width="1.51"/><path d="M3597,-658L3752,129L3992,-1Z" fill="#92bf7d" stroke="#92bf7d" stroke-width="1.51"/><path d="M3475,1800L3695,2098L4032,1609Z" fill="#3f9d56" stroke="#3f9d56" stroke-width="1.51"/><path d="M3870,1099L3465,1511L4032,1609Z" fill="#54a65f" stroke="#54a65f" stroke-width="1.51"/><path d="M3583,1009L3870,1099L4006,644Z" fill="#6daf67" stroke="#6daf67" stroke-width="1.51"/><path d="M3817,2822L4032,3252L4055,3068Z" fill="#13743c" stroke="#13743c" stroke-width="1.51"/><path d="M3597,-658L3267,-114L3752,129Z" fill="#97c582" stroke="#97c582" stroke-width="1.51"/><path d="M3752,129L3467,768L4006,644Z" fill="#7fb76f" stroke="#7fb76f" stroke-width="1.51"/><path d="M3467,768L3583,1009L4006,644Z" fill="#74b46b" stroke="#74b46b" stroke-width="1.51"/><path d="M3465,1511L3475,1800L4032,1609Z" fill="#4ba45c" stroke="#4ba45c" stroke-width="1.51"/><path d="M3321,2987L3887,3679L4032,3252Z" fill="#13713b" stroke="#13713b" stroke-width="1.51"/><path d="M3817,2822L3321,2987L4032,3252Z" fill="#19793f" stroke="#19793f" stroke-width="1.51"/><path d="M3321,2987L3253,3697L3887,3679Z" fill="#19723d" stroke="#19723d" stroke-width="1.51"/><path d="M3148,3182L3253,3697L3321,2987Z" fill="#1f7e44" stroke="#1f7e44" stroke-width="1.51"/><path d="M3307,361L3467,768L3752,129Z" fill="#87bf75" stroke="#87bf75" stroke-width="1.51"/><path d="M3292,2504L3817,2822L3931,2376Z" fill="#268745" stroke="#268745" stroke-width="1.51"/><path d="M3583,1009L3465,1511L3870,1099Z" fill="#62ae65" stroke="#62ae65" stroke-width="1.51"/><path d="M3695,2098L3292,2504L3931,2376Z" fill="#2d904b" stroke="#2d904b" stroke-width="1.51"/><path d="M3297,2187L3292,2504L3695,2098Z" fill="#339850" stroke="#339850" stroke-width="1.51"/><path d="M3292,2504L3321,2987L3817,2822Z" fill="#248645" stroke="#248645" stroke-width="1.51"/><path d="M3267,-114L3307,361L3752,129Z" fill="#91c57d" stroke="#91c57d" stroke-width="1.51"/><path d="M3475,1800L3297,2187L3695,2098Z" fill="#399e55" stroke="#399e55" stroke-width="1.51"/><path d="M3185,1025L3465,1511L3583,1009Z" fill="#67b469" stroke="#67b469" stroke-width="1.51"/><path d="M2886,-654L3267,-114L3597,-658Z" fill="#9fce92" stroke="#9fce92" stroke-width="1.51"/><path d="M3467,768L3232,892L3583,1009Z" fill="#75ba6e" stroke="#75ba6e" stroke-width="1.51"/><path d="M3232,892L3185,1025L3583,1009Z" fill="#73ba6e" stroke="#73ba6e" stroke-width="1.51"/><path d="M2886,-654L2870,-292L3267,-114Z" fill="#a3d492" stroke="#a3d492" stroke-width="1.51"/><path d="M3267,-114L3114,317L3307,361Z" fill="#94ca7f" stroke="#94ca7f" stroke-width="1.51"/><path d="M3292,2504L3086,2582L3321,2987Z" fill="#2b8f4b" stroke="#2b8f4b" stroke-width="1.51"/><path d="M3185,1025L3236,1594L3465,1511Z" fill="#5fb368" stroke="#5fb368" stroke-width="1.51"/><path d="M3307,361L3232,892L3467,768Z" fill="#80c074" stroke="#80c074" stroke-width="1.51"/><path d="M3187,1753L3297,2187L3475,1800Z" fill="#42a65b" stroke="#42a65b" stroke-width="1.51"/><path d="M3465,1511L3236,1594L3475,1800Z" fill="#50aa60" stroke="#50aa60" stroke-width="1.51"/><path d="M3236,1594L3187,1753L3475,1800Z" fill="#4eab60" stroke="#4eab60" stroke-width="1.51"/><path d="M2664,3415L2269,3623L2858,3425Z" fill="#34844c" stroke="#34844c" stroke-width="1.51"/><path d="M2659,2182L2938,2377L3187,1753Z" fill="#43aa5d" stroke="#43aa5d" stroke-width="1.51"/><path d="M3185,1025L2810,1052L3236,1594Z" fill="#6bbc6e" stroke="#6bbc6e" stroke-width="1.51"/><path d="M2858,3425L2269,3623L3253,3697Z" fill="#2c7d48" stroke="#2c7d48" stroke-width="1.51"/><path d="M3148,3182L2858,3425L3253,3697Z" fill="#227d44" stroke="#227d44" stroke-width="1.51"/><path d="M2938,2377L3086,2582L3292,2504Z" fill="#339850" stroke="#339850" stroke-width="1.51"/><path d="M2938,2377L3292,2504L3297,2187Z" fill="#369b52" stroke="#369b52" stroke-width="1.51"/><path d="M3187,1753L2938,2377L3297,2187Z" fill="#3da559" stroke="#3da559" stroke-width="1.51"/><path d="M3114,317L3232,892L3307,361Z" fill="#88c579" stroke="#88c579" stroke-width="1.51"/><path d="M3086,2582L3148,3182L3321,2987Z" fill="#278a49" stroke="#278a49" stroke-width="1.51"/><path d="M3114,317L2810,1052L3232,892Z" fill="#82c677" stroke="#82c677" stroke-width="1.51"/><path d="M2870,-292L3114,317L3267,-114Z" fill="#9cd086" stroke="#9cd086" stroke-width="1.51"/><path d="M2870,-292L2655,192L3114,317Z" fill="#9fd388" stroke="#9fd388" stroke-width="1.51"/><path d="M3086,2582L2708,3161L3148,3182Z" fill="#2b8e4c" stroke="#2b8e4c" stroke-width="1.51"/><path d="M2609,1929L2659,2182L3187,1753Z" fill="#4eb163" stroke="#4eb163" stroke-width="1.51"/><path d="M2810,1052L2474,1329L3236,1594Z" fill="#6dbf71" stroke="#6dbf71" stroke-width="1.51"/><path d="M2451,871L2810,1052L3114,317Z" fill="#8acb7d" stroke="#8acb7d" stroke-width="1.51"/><path d="M2474,1329L3187,1753L3236,1594Z" fill="#5db76a" stroke="#5db76a" stroke-width="1.51"/><path d="M2810,1052L3185,1025L3232,892Z" fill="#77c173" stroke="#77c173" stroke-width="1.51"/><path d="M2544,2687L2708,3161L3086,2582Z" fill="#379651" stroke="#379651" stroke-width="1.51"/><path d="M2655,192L2451,871L3114,317Z" fill="#98d183" stroke="#98d183" stroke-width="1.51"/><path d="M2474,1329L2609,1929L3187,1753Z" fill="#5eb96b" stroke="#5eb96b" stroke-width="1.51"/><path d="M2708,3161L2858,3425L3148,3182Z" fill="#29874a" stroke="#29874a" stroke-width="1.51"/><path d="M2938,2377L2544,2687L3086,2582Z" fill="#3a9c53" stroke="#3a9c53" stroke-width="1.51"/><path d="M2474,1329L2366,1648L2609,1929Z" fill="#6abf71" stroke="#6abf71" stroke-width="1.51"/><path d="M2697,-688L2552,-284L2870,-292Z" fill="#adda9a" stroke="#adda9a" stroke-width="1.51"/><path d="M2552,-284L2655,192L2870,-292Z" fill="#aad98f" stroke="#aad98f" stroke-width="1.51"/><path d="M2697,-688L2870,-292L2886,-654Z" fill="#aad89d" stroke="#aad89d" stroke-width="1.51"/><path d="M2659,2182L2445,2469L2938,2377Z" fill="#46a65c" stroke="#46a65c" stroke-width="1.51"/><path d="M2445,2469L2544,2687L2938,2377Z" fill="#44a158" stroke="#44a158" stroke-width="1.51"/><path d="M2708,3161L2664,3415L2858,3425Z" fill="#2f874b" stroke="#2f874b" stroke-width="1.51"/><path d="M2335,180L2451,871L2655,192Z" fill="#a2d789" stroke="#a2d789" stroke-width="1.51"/><path d="M2451,871L2474,1329L2810,1052Z" fill="#82c97b" stroke="#82c97b" stroke-width="1.51"/><path d="M2335,180L2153,730L2451,871Z" fill="#a0d789" stroke="#a0d789" stroke-width="1.51"/><path d="M2451,871L2342,1217L2474,1329Z" fill="#84cb7c" stroke="#84cb7c" stroke-width="1.51"/><path d="M2552,-284L2250,-98L2655,192Z" fill="#afdc92" stroke="#afdc92" stroke-width="1.51"/><path d="M2250,-98L2335,180L2655,192Z" fill="#addc90" stroke="#addc90" stroke-width="1.51"/><path d="M2130,-314L2552,-284L2697,-688Z" fill="#b4de9f" stroke="#b4de9f" stroke-width="1.51"/><path d="M2117,2970L2664,3415L2708,3161Z" fill="#3b9052" stroke="#3b9052" stroke-width="1.51"/><path d="M2544,2687L2117,2970L2708,3161Z" fill="#419856" stroke="#419856" stroke-width="1.51"/><path d="M1930,-497L2130,-314L2697,-688Z" fill="#bbe2a6" stroke="#bbe2a6" stroke-width="1.51"/><path d="M2609,1929L2347,1973L2659,2182Z" fill="#55b466" stroke="#55b466" stroke-width="1.51"/><path d="M2117,2970L2269,3623L2664,3415Z" fill="#3f8d52" stroke="#3f8d52" stroke-width="1.51"/><path d="M2347,1973L2445,2469L2659,2182Z" fill="#52af62" stroke="#52af62" stroke-width="1.51"/><path d="M2366,1648L2347,1973L2609,1929Z" fill="#61ba6c" stroke="#61ba6c" stroke-width="1.51"/><path d="M2075,2631L2117,2970L2544,2687Z" fill="#4da05b" stroke="#4da05b" stroke-width="1.51"/><path d="M2130,-314L2250,-98L2552,-284Z" fill="#b8e09b" stroke="#b8e09b" stroke-width="1.51"/><path d="M2445,2469L2075,2631L2544,2687Z" fill="#4ca35b" stroke="#4ca35b" stroke-width="1.51"/><path d="M2117,2970L2001,3619L2269,3623Z" fill="#478f55" stroke="#478f55" stroke-width="1.51"/><path d="M2342,1217L2011,1368L2366,1648Z" fill="#7dc87a" stroke="#7dc87a" stroke-width="1.51"/><path d="M2347,1973L1807,2313L2445,2469Z" fill="#5bb266" stroke="#5bb266" stroke-width="1.51"/><path d="M1807,2313L2075,2631L2445,2469Z" fill="#59ab62" stroke="#59ab62" stroke-width="1.51"/><path d="M2153,730L2342,1217L2451,871Z" fill="#92d182" stroke="#92d182" stroke-width="1.51"/><path d="M2342,1217L2366,1648L2474,1329Z" fill="#78c678" stroke="#78c678" stroke-width="1.51"/><path d="M1828,2058L1807,2313L2347,1973Z" fill="#67ba6d" stroke="#67ba6d" stroke-width="1.51"/><path d="M1827,609L2153,730L2335,180Z" fill="#abdb8e" stroke="#abdb8e" stroke-width="1.51"/><path d="M1736,282L1827,609L2335,180Z" fill="#b5e093" stroke="#b5e093" stroke-width="1.51"/><path d="M2153,730L1763,1172L2342,1217Z" fill="#95d284" stroke="#95d284" stroke-width="1.51"/><path d="M1763,1172L2011,1368L2342,1217Z" fill="#8ccf80" stroke="#8ccf80" stroke-width="1.51"/><path d="M1828,2058L2347,1973L2366,1648Z" fill="#68bd70" stroke="#68bd70" stroke-width="1.51"/><path d="M2011,1368L1828,2058L2366,1648Z" fill="#76c576" stroke="#76c576" stroke-width="1.51"/><path d="M2250,-98L1736,282L2335,180Z" fill="#b6e095" stroke="#b6e095" stroke-width="1.51"/><path d="M1658,3238L2001,3619L2117,2970Z" fill="#509659" stroke="#509659" stroke-width="1.51"/><path d="M2130,-314L1657,-220L2250,-98Z" fill="#c1e59f" stroke="#c1e59f" stroke-width="1.51"/><path d="M1657,-220L1736,282L2250,-98Z" fill="#c1e59b" stroke="#c1e59b" stroke-width="1.51"/><path d="M1499,1731L1828,2058L2011,1368Z" fill="#80c87a" stroke="#80c87a" stroke-width="1.51"/><path d="M1526,1527L1499,1731L2011,1368Z" fill="#8bce80" stroke="#8bce80" stroke-width="1.51"/><path d="M2075,2631L1859,2701L2117,2970Z" fill="#56a35e" stroke="#56a35e" stroke-width="1.51"/><path d="M1827,609L1763,1172L2153,730Z" fill="#a3d98a" stroke="#a3d98a" stroke-width="1.51"/><path d="M1060,-475L1554,-322L1930,-497Z" fill="#d4eeaf" stroke="#d4eeaf" stroke-width="1.51"/><path d="M1930,-497L1657,-220L2130,-314Z" fill="#c6e7a6" stroke="#c6e7a6" stroke-width="1.51"/><path d="M969,3500L332,3640L1524,3667Z" fill="#6b9861" stroke="#6b9861" stroke-width="1.51"/><path d="M1807,2313L1859,2701L2075,2631Z" fill="#5eac63" stroke="#5eac63" stroke-width="1.51"/><path d="M1859,2701L1658,3238L2117,2970Z" fill="#57a05e" stroke="#57a05e" stroke-width="1.51"/><path d="M1658,3238L1524,3667L2001,3619Z" fill="#549159" stroke="#549159" stroke-width="1.51"/><path d="M1763,1172L1526,1527L2011,1368Z" fill="#91d182" stroke="#91d182" stroke-width="1.51"/><path d="M1412,949L1763,1172L1827,609Z" fill="#a9db8c" stroke="#a9db8c" stroke-width="1.51"/><path d="M1554,-322L1657,-220L1930,-497Z" fill="#cceaa8" stroke="#cceaa8" stroke-width="1.51"/><path d="M1657,-220L1381,185L1736,282Z" fill="#c9e99d" stroke="#c9e99d" stroke-width="1.51"/><path d="M1388,588L1412,949L1827,609Z" fill="#b5e192" stroke="#b5e192" stroke-width="1.51"/><path d="M1226,2944L1658,3238L1859,2701Z" fill="#62a562" stroke="#62a562" stroke-width="1.51"/><path d="M1338,2569L1226,2944L1859,2701Z" fill="#6bad66" stroke="#6bad66" stroke-width="1.51"/><path d="M1807,2313L1338,2569L1859,2701Z" fill="#68b067" stroke="#68b067" stroke-width="1.51"/><path d="M1736,282L1388,588L1827,609Z" fill="#bbe394" stroke="#bbe394" stroke-width="1.51"/><path d="M1312,2170L1807,2313L1828,2058Z" fill="#72bd70" stroke="#72bd70" stroke-width="1.51"/><path d="M1499,1731L1312,2170L1828,2058Z" fill="#7cc576" stroke="#7cc576" stroke-width="1.51"/><path d="M1312,2170L1338,2569L1807,2313Z" fill="#73b96e" stroke="#73b96e" stroke-width="1.51"/><path d="M1226,2944L1444,3270L1658,3238Z" fill="#63a162" stroke="#63a162" stroke-width="1.51"/><path d="M1444,3270L1524,3667L1658,3238Z" fill="#5c985d" stroke="#5c985d" stroke-width="1.51"/><path d="M1412,949L1526,1527L1763,1172Z" fill="#9ed788" stroke="#9ed788" stroke-width="1.51"/><path d="M1412,949L1166,1217L1526,1527Z" fill="#a4d98a" stroke="#a4d98a" stroke-width="1.51"/><path d="M1271,-60L1381,185L1657,-220Z" fill="#d1eca2" stroke="#d1eca2" stroke-width="1.51"/><path d="M1381,185L1388,588L1736,282Z" fill="#c5e799" stroke="#c5e799" stroke-width="1.51"/><path d="M1166,1217L1199,1420L1526,1527Z" fill="#9ed788" stroke="#9ed788" stroke-width="1.51"/><path d="M1554,-322L1271,-60L1657,-220Z" fill="#d3eda5" stroke="#d3eda5" stroke-width="1.51"/><path d="M1388,588L1200,744L1412,949Z" fill="#bae294" stroke="#bae294" stroke-width="1.51"/><path d="M1117,2090L1312,2170L1499,1731Z" fill="#83c879" stroke="#83c879" stroke-width="1.51"/><path d="M1444,3270L969,3500L1524,3667Z" fill="#62985f" stroke="#62985f" stroke-width="1.51"/><path d="M1060,-475L1271,-60L1554,-322Z" fill="#d9f0ac" stroke="#d9f0ac" stroke-width="1.51"/><path d="M1199,1420L1499,1731L1526,1527Z" fill="#93d183" stroke="#93d183" stroke-width="1.51"/><path d="M1199,1420L1117,2090L1499,1731Z" fill="#8fcf80" stroke="#8fcf80" stroke-width="1.51"/><path d="M1381,185L892,383L1388,588Z" fill="#ccea9d" stroke="#ccea9d" stroke-width="1.51"/><path d="M1226,2944L969,3500L1444,3270Z" fill="#69a163" stroke="#69a163" stroke-width="1.51"/><path d="M1041,2827L1226,2944L1338,2569Z" fill="#72af69" stroke="#72af69" stroke-width="1.51"/><path d="M1312,2170L1037,2221L1338,2569Z" fill="#7cbe72" stroke="#7cbe72" stroke-width="1.51"/><path d="M1271,-60L1119,32L1381,185Z" fill="#d4eea3" stroke="#d4eea3" stroke-width="1.51"/><path d="M1200,744L1166,1217L1412,949Z" fill="#b3e091" stroke="#b3e091" stroke-width="1.51"/><path d="M1119,32L892,383L1381,185Z" fill="#d4eda1" stroke="#d4eda1" stroke-width="1.51"/><path d="M892,383L1200,744L1388,588Z" fill="#c6e899" stroke="#c6e899" stroke-width="1.51"/><path d="M677,1845L1117,2090L1199,1420Z" fill="#96d183" stroke="#96d183" stroke-width="1.51"/><path d="M1037,2221L1041,2827L1338,2569Z" fill="#79b66e" stroke="#79b66e" stroke-width="1.51"/><path d="M766,1419L677,1845L1199,1420Z" fill="#a3d88a" stroke="#a3d88a" stroke-width="1.51"/><path d="M1060,-475L1119,32L1271,-60Z" fill="#ddf1a9" stroke="#ddf1a9" stroke-width="1.51"/><path d="M1117,2090L1037,2221L1312,2170Z" fill="#82c477" stroke="#82c477" stroke-width="1.51"/><path d="M759,1172L1166,1217L1200,744Z" fill="#b6e192" stroke="#b6e192" stroke-width="1.51"/><path d="M1041,2827L969,3500L1226,2944Z" fill="#6fa867" stroke="#6fa867" stroke-width="1.51"/><path d="M563,3174L969,3500L1041,2827Z" fill="#75a869" stroke="#75a869" stroke-width="1.51"/><path d="M1037,2221L552,2403L1041,2827Z" fill="#83bc72" stroke="#83bc72" stroke-width="1.51"/><path d="M1060,-475L633,-75L1119,32Z" fill="#e3f4ac" stroke="#e3f4ac" stroke-width="1.51"/><path d="M1166,1217L766,1419L1199,1420Z" fill="#a8db8d" stroke="#a8db8d" stroke-width="1.51"/><path d="M565,678L759,1172L1200,744Z" fill="#c4e798" stroke="#c4e798" stroke-width="1.51"/><path d="M741,469L565,678L1200,744Z" fill="#ceeb9d" stroke="#ceeb9d" stroke-width="1.51"/><path d="M892,383L741,469L1200,744Z" fill="#cfeb9e" stroke="#cfeb9e" stroke-width="1.51"/><path d="M552,2403L655,2817L1041,2827Z" fill="#82b770" stroke="#82b770" stroke-width="1.51"/><path d="M759,1172L766,1419L1166,1217Z" fill="#b0de90" stroke="#b0de90" stroke-width="1.51"/><path d="M655,2817L563,3174L1041,2827Z" fill="#7cb06d" stroke="#7cb06d" stroke-width="1.51"/><path d="M677,1845L1037,2221L1117,2090Z" fill="#8ccb7d" stroke="#8ccb7d" stroke-width="1.51"/><path d="M633,-75L892,383L1119,32Z" fill="#ddf2a6" stroke="#ddf2a6" stroke-width="1.51"/><path d="M495,3452L332,3640L969,3500Z" fill="#759e67" stroke="#759e67" stroke-width="1.51"/><path d="M546,-531L633,-75L1060,-475Z" fill="#eaf7b6" stroke="#eaf7b6" stroke-width="1.51"/><path d="M677,1845L552,2403L1037,2221Z" fill="#8fca7d" stroke="#8fca7d" stroke-width="1.51"/><path d="M563,3174L495,3452L969,3500Z" fill="#76a268" stroke="#76a268" stroke-width="1.51"/><path d="M633,-75L741,469L892,383Z" fill="#ddf2a6" stroke="#ddf2a6" stroke-width="1.51"/><path d="M184,-58L129,450L633,-75Z" fill="#e9f6af" stroke="#e9f6af" stroke-width="1.51"/><path d="M294,2115L552,2403L677,1845Z" fill="#95cd81" stroke="#95cd81" stroke-width="1.51"/><path d="M633,-75L129,450L741,469Z" fill="#e1f4a9" stroke="#e1f4a9" stroke-width="1.51"/><path d="M565,678L345,698L759,1172Z" fill="#cbea9d" stroke="#cbea9d" stroke-width="1.51"/><path d="M345,698L150,944L759,1172Z" fill="#cae99d" stroke="#cae99d" stroke-width="1.51"/><path d="M759,1172L118,1476L766,1419Z" fill="#b4e093" stroke="#b4e093" stroke-width="1.51"/><path d="M118,1476L677,1845L766,1419Z" fill="#abdb8f" stroke="#abdb8f" stroke-width="1.51"/><path d="M150,944L118,1476L759,1172Z" fill="#c0e599" stroke="#c0e599" stroke-width="1.51"/><path d="M24,1171L118,1476L150,944Z" fill="#c5e79d" stroke="#c5e79d" stroke-width="1.51"/><path d="M118,1476L226,1908L677,1845Z" fill="#a7d98d" stroke="#a7d98d" stroke-width="1.51"/><path d="M129,450L565,678L741,469Z" fill="#daf0a4" stroke="#daf0a4" stroke-width="1.51"/><path d="M129,450L345,698L565,678Z" fill="#d9f0a5" stroke="#d9f0a5" stroke-width="1.51"/><path d="M546,-531L184,-58L633,-75Z" fill="#eff9b5" stroke="#eff9b5" stroke-width="1.51"/><path d="M552,2403L262,2621L655,2817Z" fill="#88bb75" stroke="#88bb75" stroke-width="1.51"/><path d="M283,2960L563,3174L655,2817Z" fill="#80b170" stroke="#80b170" stroke-width="1.51"/><path d="M226,1908L294,2115L677,1845Z" fill="#9dd387" stroke="#9dd387" stroke-width="1.51"/><path d="M265,-564L184,-58L546,-531Z" fill="#f3fabe" stroke="#f3fabe" stroke-width="1.51"/><path d="M262,2621L283,2960L655,2817Z" fill="#86b774" stroke="#86b774" stroke-width="1.51"/><path d="M3,242L129,450L184,-58Z" fill="#ebf7b0" stroke="#ebf7b0" stroke-width="1.51"/><path d="M283,2960L495,3452L563,3174Z" fill="#7dab6e" stroke="#7dab6e" stroke-width="1.51"/><path d="M294,2115L262,2621L552,2403Z" fill="#91c47c" stroke="#91c47c" stroke-width="1.51"/><path d="M283,2960L-79,3330L495,3452Z" fill="#81ab70" stroke="#81ab70" stroke-width="1.51"/><path d="M44,2308L262,2621L294,2115Z" fill="#95c77f" stroke="#95c77f" stroke-width="1.51"/><path d="M-79,3330L332,3640L495,3452Z" fill="#7ca26d" stroke="#7ca26d" stroke-width="1.51"/><path d="M-49,-241L184,-58L265,-564Z" fill="#f6fcbd" stroke="#f6fcbd" stroke-width="1.51"/><path d="M-110,3221L-79,3330L283,2960Z" fill="#86b074" stroke="#86b074" stroke-width="1.51"/><path d="M-79,3330L-649,3638L332,3640Z" fill="#81a373" stroke="#81a373" stroke-width="1.51"/><path d="M129,450L150,944L345,698Z" fill="#d8f0a5" stroke="#d8f0a5" stroke-width="1.51"/><path d="M-81,-523L-49,-241L265,-564Z" fill="#f9fdc4" stroke="#f9fdc4" stroke-width="1.51"/><path d="M118,1476L-233,1668L226,1908Z" fill="#b1dc93" stroke="#b1dc93" stroke-width="1.51"/><path d="M262,2621L-227,2516L283,2960Z" fill="#8ebc79" stroke="#8ebc79" stroke-width="1.51"/><path d="M-227,2516L-366,2936L283,2960Z" fill="#8eb97c" stroke="#8eb97c" stroke-width="1.51"/><path d="M226,1908L26,2041L294,2115Z" fill="#9fd388" stroke="#9fd388" stroke-width="1.51"/><path d="M26,2041L44,2308L294,2115Z" fill="#9ccf85" stroke="#9ccf85" stroke-width="1.51"/><path d="M-366,2936L-110,3221L283,2960Z" fill="#8ab478" stroke="#8ab478" stroke-width="1.51"/><path d="M44,2308L-227,2516L262,2621Z" fill="#95c47e" stroke="#95c47e" stroke-width="1.51"/><path d="M129,450L-294,882L150,944Z" fill="#daf0a7" stroke="#daf0a7" stroke-width="1.51"/><path d="M-233,1668L26,2041L226,1908Z" fill="#a9d88f" stroke="#a9d88f" stroke-width="1.51"/><path d="M-49,-241L3,242L184,-58Z" fill="#f3fab6" stroke="#f3fab6" stroke-width="1.51"/><path d="M-294,882L24,1171L150,944Z" fill="#d0eca3" stroke="#d0eca3" stroke-width="1.51"/><path d="M24,1171L-233,1668L118,1476Z" fill="#bce39a" stroke="#bce39a" stroke-width="1.51"/><path d="M3,242L-528,727L129,450Z" fill="#e6f5b0" stroke="#e6f5b0" stroke-width="1.51"/><path d="M-528,727L-294,882L129,450Z" fill="#def2af" stroke="#def2af" stroke-width="1.51"/><path d="M-424,198L-528,727L3,242Z" fill="#ebf7b7" stroke="#ebf7b7" stroke-width="1.51"/><path d="M-419,-212L-424,198L-49,-241Z" fill="#f7fcc1" stroke="#f7fcc1" stroke-width="1.51"/><path d="M-49,-241L-424,198L3,242Z" fill="#f2fab9" stroke="#f2fab9" stroke-width="1.51"/><path d="M-370,989L-233,1668L24,1171Z" fill="#c4e6a2" stroke="#c4e6a2" stroke-width="1.51"/><path d="M-294,882L-370,989L24,1171Z" fill="#d1eca9" stroke="#d1eca9" stroke-width="1.51"/><path d="M-233,1668L-457,2074L26,2041Z" fill="#a8d793" stroke="#a8d793" stroke-width="1.51"/><path d="M26,2041L-457,2074L44,2308Z" fill="#a0d18c" stroke="#a0d18c" stroke-width="1.51"/><path d="M-457,2074L-227,2516L44,2308Z" fill="#9ccb8a" stroke="#9ccb8a" stroke-width="1.51"/><path d="M-457,2074L-517,2342L-227,2516Z" fill="#9dcb8f" stroke="#9dcb8f" stroke-width="1.51"/><path d="M-81,-523L-419,-212L-49,-241Z" fill="#fafdc6" stroke="#fafdc6" stroke-width="1.51"/><path d="M-370,989L-745,1513L-233,1668Z" fill="#c0e5a7" stroke="#c0e5a7" stroke-width="1.51"/><path d="M-110,3221L-649,3638L-79,3330Z" fill="#84a879" stroke="#84a879" stroke-width="1.51"/><path d="M-720,-399L-419,-212L-81,-523Z" fill="#fcfdce" stroke="#fcfdce" stroke-width="1.51"/><path d="M-366,2936L-649,3638L-110,3221Z" fill="#86ac7d" stroke="#86ac7d" stroke-width="1.51"/><path d="M-588,2852L-649,3638L-366,2936Z" fill="#89b183" stroke="#89b183" stroke-width="1.51"/><path d="M-745,1513L-457,2074L-233,1668Z" fill="#b0dc9f" stroke="#b0dc9f" stroke-width="1.51"/><path d="M-588,2852L-366,2936L-227,2516Z" fill="#91bc84" stroke="#91bc84" stroke-width="1.51"/><path d="M-517,2342L-588,2852L-227,2516Z" fill="#96c189" stroke="#96c189" stroke-width="1.51"/><path d="M-528,727L-370,989L-294,882Z" fill="#d8efb0" stroke="#d8efb0" stroke-width="1.51"/><path d="M-720,-399L-424,198L-419,-212Z" fill="#fafdc9" stroke="#fafdc9" stroke-width="1.51"/><path d="M-528,727L-745,1513L-370,989Z" fill="#cfebb1" stroke="#cfebb1" stroke-width="1.51"/><path d="M-720,-399L-528,727L-424,198Z" fill="#f1fac3" stroke="#f1fac3" stroke-width="1.51"/><path d="M-745,1513L-517,2342L-457,2074Z" fill="#a7d79d" stroke="#a7d79d" stroke-width="1.51"/><path d="M-745,1513L-588,2852L-517,2342Z" fill="#a0ce96" stroke="#a0ce96" stroke-width="1.51"/><path d="M-720,-399L-745,1513L-528,727Z" fill="#e3f4bd" stroke="#e3f4bd" stroke-width="1.51"/><path d="M-745,1513L-649,3638L-588,2852Z" fill="#94bf8e" stroke="#94bf8e" stroke-width="1.51"/></svg>